<svg xmlns="http://www.w3.org/2000/svg" width="375.364" height="136.37" viewBox="0 0 375.364 136.37">
  <g id="Group_105" data-name="Group 105" transform="translate(-124 -50.63)">
    <rect id="Rectangle_2" data-name="Rectangle 2" width="44.7" height="43.238" transform="translate(171.355 97.695)" fill="#fc9a0a"/>
    <rect id="Rectangle_3" data-name="Rectangle 3" width="44.699" height="43.237" transform="translate(124.001 97.474)" fill="#4b95d2"/>
    <path id="Path_1" data-name="Path 1" d="M0,101.326H44.7L0,58.09Z" transform="translate(124 39.384)" fill="#004c94"/>
    <path id="Path_2" data-name="Path 2" d="M58.725,58.362V101.6l44.7,0Z" transform="translate(112.631 39.331)" fill="#e62e18"/>
    <path id="Path_3" data-name="Path 3" d="M59.2.968V44.2l44.7,0V.963Z" transform="translate(112.539 50.444)" fill="#e15c9d"/>
    <rect id="Rectangle_4" data-name="Rectangle 4" width="44.695" height="43.237" transform="translate(124.004 51.409)" fill="#e20071"/>
    <path id="Path_4" data-name="Path 4" d="M59.2.969V44.2l44.7,0Z" transform="translate(112.539 50.443)" fill="#5a4192"/>
    <path id="Path_5" data-name="Path 5" d="M.005,44.2l44.694,0L0,.963Z" transform="translate(123.999 50.444)" fill="#880d43"/>
    <path id="Path_6" data-name="Path 6" d="M163.417.678l-44.7,0v43.24l44.7,0Z" transform="translate(101.017 50.5)" fill="#1fb8ef"/>
    <path id="Path_7" data-name="Path 7" d="M118.716.674v43.24l44.7,0Z" transform="translate(101.017 50.5)" fill="#0082b6"/>
    <path id="Path_8" data-name="Path 8" d="M0,158.451l44.7,0,0-43.233L0,115.21Z" transform="translate(124 28.326)" fill="#55ab33"/>
    <path id="Path_9" data-name="Path 9" d="M0,158.451l44.7,0L0,115.21Z" transform="translate(124 28.326)" fill="#216f30"/>
    <path id="Path_10" data-name="Path 10" d="M249.284,1.417V10.74H229.137V24.014H248.1v9.323H229.137V57.829H217.76V1.417Z" transform="translate(81.842 50.356)" fill="#fff"/>
    <path id="Path_11" data-name="Path 11" d="M262.244,17.546a26.164,26.164,0,0,1,2.608-9.284,14.608,14.608,0,0,1,5.806-6.043Q274.451.045,280.851.046t10.192,2.172a14.6,14.6,0,0,1,5.807,6.043,26.181,26.181,0,0,1,2.607,9.284,108.938,108.938,0,0,1,.592,11.812,108.631,108.631,0,0,1-.592,11.851,26.1,26.1,0,0,1-2.607,9.244,13.858,13.858,0,0,1-5.807,5.925q-3.793,2.053-10.192,2.054t-10.193-2.054a13.861,13.861,0,0,1-5.806-5.925,26.084,26.084,0,0,1-2.608-9.244,108.639,108.639,0,0,1-.592-11.851,108.945,108.945,0,0,1,.592-11.812m11.061,21.491a26.858,26.858,0,0,0,1.106,6.479,7.2,7.2,0,0,0,2.37,3.634,7.8,7.8,0,0,0,8.138,0,7.194,7.194,0,0,0,2.369-3.634,26.932,26.932,0,0,0,1.107-6.479q.275-3.989.277-9.678t-.277-9.64a27.41,27.41,0,0,0-1.107-6.478,7.2,7.2,0,0,0-2.369-3.674,7.793,7.793,0,0,0-8.138,0,7.2,7.2,0,0,0-2.37,3.674,27.333,27.333,0,0,0-1.106,6.478q-.277,3.954-.277,9.64t.277,9.678" transform="translate(73.345 50.621)" fill="#fff"/>
    <path id="Path_12" data-name="Path 12" d="M338.613,1.417q7.11,0,11.061,3.594t3.95,10.943a17.013,17.013,0,0,1-2.291,9.284,10.61,10.61,0,0,1-7.11,4.621v.158q4.265.633,6.242,2.766t2.449,6.874q.157,1.58.236,3.436t.159,4.147q.157,4.5.473,6.875a4.423,4.423,0,0,0,2.054,3.239v.473H343.511a6.092,6.092,0,0,1-1.106-2.726,30.57,30.57,0,0,1-.317-3.2l-.314-10.824a8.913,8.913,0,0,0-1.66-5.214q-1.5-1.9-5.057-1.9h-6.083v23.86H317.6V1.417Zm-4.9,24.65a9.3,9.3,0,0,0,6.32-1.935q2.211-1.934,2.213-6.518,0-7.82-7.9-7.821h-5.373V26.067Z" transform="translate(62.514 50.356)" fill="#fff"/>
    <path id="Path_13" data-name="Path 13" d="M394.422,11.226q-1.463-2.8-5.333-2.805a5.331,5.331,0,0,0-3.515,1.145A7.6,7.6,0,0,0,383.4,13.28a31.523,31.523,0,0,0-1.106,6.715q-.317,4.149-.317,10.153a98.419,98.419,0,0,0,.435,10.349,22.974,22.974,0,0,0,1.342,6.123,5.6,5.6,0,0,0,2.293,2.924,6.6,6.6,0,0,0,3.2.75,7.586,7.586,0,0,0,2.805-.513,4.753,4.753,0,0,0,2.251-2.054,13.394,13.394,0,0,0,1.5-4.347,39.78,39.78,0,0,0,.553-7.387h11.377a50.821,50.821,0,0,1-.712,8.691,19.67,19.67,0,0,1-2.646,7.19,13.166,13.166,0,0,1-5.451,4.82,20.676,20.676,0,0,1-9.126,1.737q-6.4,0-10.192-2.054a13.857,13.857,0,0,1-5.807-5.925,26.1,26.1,0,0,1-2.607-9.245,108.631,108.631,0,0,1-.592-11.851,108.938,108.938,0,0,1,.592-11.812A26.18,26.18,0,0,1,373.8,8.262a14.607,14.607,0,0,1,5.807-6.044Q383.4.046,389.8.046q6.082,0,9.6,1.974a13.466,13.466,0,0,1,5.255,5.018,17.431,17.431,0,0,1,2.172,6.557,54.159,54.159,0,0,1,.435,6.6H395.883q0-6.163-1.462-8.967" transform="translate(52.252 50.621)" fill="#fff"/>
    <path id="Path_14" data-name="Path 14" d="M456.207,10.74H436.059V24.013h18.962v9.323H436.059v15.17H457v9.323H424.683V1.417h31.524Z" transform="translate(41.782 50.356)" fill="#fff"/>
    <path id="Path_15" data-name="Path 15" d="M234.395,77.544q5.876,0,9.142,2.971t3.265,9.045a14.069,14.069,0,0,1-1.893,7.675,8.768,8.768,0,0,1-5.877,3.819v.131a8.517,8.517,0,0,1,5.159,2.286q1.632,1.762,2.025,5.681.129,1.306.2,2.84t.131,3.429q.129,3.722.391,5.682a3.659,3.659,0,0,0,1.7,2.678v.391H238.443a5.033,5.033,0,0,1-.914-2.253,25.3,25.3,0,0,1-.262-2.644l-.26-8.947a7.366,7.366,0,0,0-1.372-4.31q-1.241-1.568-4.18-1.568h-5.029v19.722h-9.4V77.544Zm-4.049,20.375a7.687,7.687,0,0,0,5.224-1.6q1.828-1.6,1.829-5.388,0-6.464-6.53-6.465h-4.442V97.919Z" transform="translate(81.985 35.618)" fill="#fff"/>
    <path id="Path_16" data-name="Path 16" d="M288.106,85.249H271.453V96.221h15.673v7.706H271.453v12.54H288.76v7.706H262.05V77.544h26.056Z" transform="translate(73.268 35.618)" fill="#fff"/>
    <path id="Path_17" data-name="Path 17" d="M317.458,77.544a13.591,13.591,0,0,1,6.041,1.208,11.042,11.042,0,0,1,3.951,3.167,12.378,12.378,0,0,1,2.155,4.475,20.3,20.3,0,0,1,.653,5.125,16.724,16.724,0,0,1-1.077,6.27,11.362,11.362,0,0,1-3,4.376,12.562,12.562,0,0,1-4.668,2.547,20.476,20.476,0,0,1-6.074.849h-5.029v18.612H301V77.544Zm-2.873,21.094a6.2,6.2,0,0,0,4.539-1.7q1.73-1.7,1.731-5.29a8.268,8.268,0,0,0-1.5-5.355q-1.5-1.828-5.028-1.828h-3.919V98.638Z" transform="translate(65.726 35.618)" fill="#fff"/>
    <path id="Path_18" data-name="Path 18" d="M342.306,90.875a21.62,21.62,0,0,1,2.156-7.674,12.074,12.074,0,0,1,4.8-5,20.666,20.666,0,0,1,16.849,0,12.074,12.074,0,0,1,4.8,5,21.62,21.62,0,0,1,2.156,7.674,97.943,97.943,0,0,1,0,19.559,21.556,21.556,0,0,1-2.156,7.641,11.456,11.456,0,0,1-4.8,4.9,21.754,21.754,0,0,1-16.849,0,11.456,11.456,0,0,1-4.8-4.9,21.556,21.556,0,0,1-2.156-7.641,97.943,97.943,0,0,1,0-19.559m9.143,17.763a22.172,22.172,0,0,0,.914,5.354,5.946,5.946,0,0,0,1.959,3,6.448,6.448,0,0,0,6.727,0,5.945,5.945,0,0,0,1.959-3,22.208,22.208,0,0,0,.914-5.354q.227-3.3.229-8t-.229-7.967a22.624,22.624,0,0,0-.914-5.355,5.961,5.961,0,0,0-1.959-3.037,6.448,6.448,0,0,0-6.727,0,5.961,5.961,0,0,0-1.959,3.037,22.587,22.587,0,0,0-.914,5.355q-.23,3.267-.229,7.967t.229,8" transform="translate(57.825 35.837)" fill="#fff"/>
    <path id="Path_19" data-name="Path 19" d="M405.431,77.544q5.876,0,9.142,2.971t3.265,9.045a14.069,14.069,0,0,1-1.893,7.675,8.768,8.768,0,0,1-5.877,3.819v.131a8.517,8.517,0,0,1,5.158,2.286q1.632,1.762,2.025,5.681.129,1.306.2,2.84t.131,3.429q.129,3.722.391,5.682a3.659,3.659,0,0,0,1.7,2.678v.391H409.479a5.033,5.033,0,0,1-.914-2.253,25.082,25.082,0,0,1-.261-2.644l-.261-8.947a7.366,7.366,0,0,0-1.372-4.31q-1.241-1.568-4.18-1.568h-5.029v19.722h-9.4V77.544Zm-4.049,20.375a7.687,7.687,0,0,0,5.224-1.6q1.828-1.6,1.829-5.388,0-6.464-6.53-6.465h-4.442V97.919Z" transform="translate(48.872 35.618)" fill="#fff"/>
    <path id="Path_20" data-name="Path 20" d="M458.331,85.249H448.144v38.923h-9.4V85.249H428.552V77.544h29.779Z" transform="translate(41.033 35.618)" fill="#fff"/>
    <path id="Path_21" data-name="Path 21" d="M217.366,153.419a4.88,4.88,0,0,1,3.482,1.151,4.614,4.614,0,0,1,1.22,3.509,7.913,7.913,0,0,1-.274,2.187,4.086,4.086,0,0,1-.85,1.6,3.691,3.691,0,0,1-1.467.994,5.882,5.882,0,0,1-2.111.342h-3.359v-9.787Zm.11,8.691c.147,0,.329-.011.548-.034a3.092,3.092,0,0,0,.7-.164,3.206,3.206,0,0,0,.734-.377,2.469,2.469,0,0,0,.651-.672,3.761,3.761,0,0,0,.473-1.062,5.59,5.59,0,0,0,.185-1.542,6.553,6.553,0,0,0-.172-1.571,3.023,3.023,0,0,0-.561-1.179,2.482,2.482,0,0,0-1.008-.74,4.024,4.024,0,0,0-1.522-.253h-2.193v7.595Z" transform="translate(82.569 20.929)" fill="#fff"/>
    <path id="Path_22" data-name="Path 22" d="M230.662,163.363a3.222,3.222,0,0,1-2,.6,3.645,3.645,0,0,1-1.473-.274,2.9,2.9,0,0,1-1.049-.768,3.269,3.269,0,0,1-.638-1.179,5.681,5.681,0,0,1-.239-1.494,4.266,4.266,0,0,1,.247-1.481,3.545,3.545,0,0,1,.692-1.165,3.148,3.148,0,0,1,1.056-.768,3.218,3.218,0,0,1,1.336-.274,2.917,2.917,0,0,1,1.57.39,3.126,3.126,0,0,1,1,.994,3.94,3.94,0,0,1,.52,1.317,5.664,5.664,0,0,1,.117,1.356h-5.305a2.822,2.822,0,0,0,.11.885,1.991,1.991,0,0,0,.4.74,1.954,1.954,0,0,0,.7.514,2.408,2.408,0,0,0,1,.192,2.022,2.022,0,0,0,1.214-.343,1.657,1.657,0,0,0,.623-1.042h1.152a2.834,2.834,0,0,1-1.028,1.8m-.281-4.552a2.018,2.018,0,0,0-.425-.637,2,2,0,0,0-1.433-.583,2.028,2.028,0,0,0-.815.158,1.869,1.869,0,0,0-.624.431,2.046,2.046,0,0,0-.411.638,2.422,2.422,0,0,0-.178.774h4.072a2.4,2.4,0,0,0-.185-.781" transform="translate(80.39 20.32)" fill="#fff"/>
    <path id="Path_23" data-name="Path 23" d="M241.053,163.788a1.65,1.65,0,0,1-.836.178,1,1,0,0,1-.72-.254,1.1,1.1,0,0,1-.267-.829,2.779,2.779,0,0,1-1.118.829,3.855,3.855,0,0,1-2.289.144,2.127,2.127,0,0,1-.747-.343,1.632,1.632,0,0,1-.5-.61,2.049,2.049,0,0,1-.185-.911A2.08,2.08,0,0,1,234.6,161a1.8,1.8,0,0,1,.541-.624,2.488,2.488,0,0,1,.768-.363c.288-.081.583-.151.885-.206q.479-.1.911-.144a5.007,5.007,0,0,0,.761-.136,1.266,1.266,0,0,0,.52-.261.631.631,0,0,0,.193-.5,1.164,1.164,0,0,0-.144-.617.985.985,0,0,0-.37-.356,1.507,1.507,0,0,0-.507-.165,3.828,3.828,0,0,0-.555-.041,2.46,2.46,0,0,0-1.235.281,1.191,1.191,0,0,0-.534,1.062h-1.165a2.509,2.509,0,0,1,.274-1.11,2.077,2.077,0,0,1,.658-.734,2.781,2.781,0,0,1,.939-.4,4.957,4.957,0,0,1,1.131-.123,6.589,6.589,0,0,1,.953.069,2.514,2.514,0,0,1,.857.281,1.634,1.634,0,0,1,.616.6,1.888,1.888,0,0,1,.233,1v3.638a2.693,2.693,0,0,0,.048.6q.048.191.322.191a1.392,1.392,0,0,0,.357-.055Zm-1.892-3.633a1.452,1.452,0,0,1-.576.239c-.238.05-.486.091-.748.123s-.523.069-.788.11a2.935,2.935,0,0,0-.713.2,1.287,1.287,0,0,0-.514.389,1.079,1.079,0,0,0-.2.688.942.942,0,0,0,.117.485.96.96,0,0,0,.3.321,1.278,1.278,0,0,0,.432.177,2.409,2.409,0,0,0,.52.054,2.772,2.772,0,0,0,.988-.156,2.094,2.094,0,0,0,.672-.4,1.572,1.572,0,0,0,.384-.519,1.315,1.315,0,0,0,.123-.525Z" transform="translate(78.622 20.32)" fill="#fff"/>
    <rect id="Rectangle_5" data-name="Rectangle 5" width="1.165" height="9.788" transform="translate(320.826 174.347)" fill="#fff"/>
    <path id="Path_24" data-name="Path 24" d="M259.161,153.419v1.1h-5.126v3.113h4.5v1.1h-4.5v4.483h-1.3v-9.788Z" transform="translate(75.072 20.929)" fill="#fff"/>
    <rect id="Rectangle_6" data-name="Rectangle 6" width="1.165" height="9.788" transform="translate(335.549 174.347)" fill="#fff"/>
    <path id="Path_25" data-name="Path 25" d="M265.768,158.819a3.289,3.289,0,0,1,.659-1.179,3.076,3.076,0,0,1,1.082-.789,3.97,3.97,0,0,1,2.968,0,3.1,3.1,0,0,1,1.076.789,3.3,3.3,0,0,1,.659,1.179,4.748,4.748,0,0,1,.219,1.46,4.687,4.687,0,0,1-.219,1.453,3.32,3.32,0,0,1-.659,1.172,3.041,3.041,0,0,1-1.076.782,4.076,4.076,0,0,1-2.968,0,3.022,3.022,0,0,1-1.082-.782,3.306,3.306,0,0,1-.659-1.172,4.661,4.661,0,0,1-.219-1.453,4.721,4.721,0,0,1,.219-1.46m1.186,2.6a2.384,2.384,0,0,0,.473.836,2.056,2.056,0,0,0,.706.514,2.149,2.149,0,0,0,1.714,0,2.066,2.066,0,0,0,.706-.514,2.4,2.4,0,0,0,.473-.836,3.9,3.9,0,0,0,0-2.289,2.478,2.478,0,0,0-.473-.843,2.022,2.022,0,0,0-.706-.521,2.149,2.149,0,0,0-1.714,0,2.012,2.012,0,0,0-.706.521,2.466,2.466,0,0,0-.473.843,3.9,3.9,0,0,0,0,2.289" transform="translate(72.59 20.32)" fill="#fff"/>
    <path id="Path_26" data-name="Path 26" d="M281.413,163.855l-1.439-5.634h-.027l-1.427,5.634h-1.26l-2.276-7.087h1.289l1.6,5.8h.027l1.426-5.8H280.6l1.481,5.8h.027l1.59-5.8h1.206l-2.262,7.087Z" transform="translate(70.764 20.28)" fill="#fff"/>
    <path id="Path_27" data-name="Path 27" d="M292.34,154.515v-1.1h7.828v1.1h-3.263v8.691h-1.3v-8.691Z" transform="translate(67.403 20.929)" fill="#fff"/>
    <path id="Path_28" data-name="Path 28" d="M304.317,153.419v3.743h.027a1.546,1.546,0,0,1,.384-.556,2.2,2.2,0,0,1,.555-.37,2.9,2.9,0,0,1,.644-.213,3.291,3.291,0,0,1,.652-.068,3.072,3.072,0,0,1,1.165.192,1.923,1.923,0,0,1,.754.535,1.989,1.989,0,0,1,.4.816,4.434,4.434,0,0,1,.116,1.048v4.662h-1.165v-4.8a1.408,1.408,0,0,0-.384-1.041,1.424,1.424,0,0,0-1.056-.384,2.362,2.362,0,0,0-.926.164,1.725,1.725,0,0,0-.651.466,2.016,2.016,0,0,0-.391.706,2.887,2.887,0,0,0-.13.885v4h-1.165v-9.788Z" transform="translate(65.31 20.929)" fill="#fff"/>
    <path id="Path_29" data-name="Path 29" d="M313.651,156.727v1.5h.027a3.151,3.151,0,0,1,1.041-1.276,2.622,2.622,0,0,1,1.564-.384V157.8a3.287,3.287,0,0,0-1.193.192,1.881,1.881,0,0,0-.8.562,2.312,2.312,0,0,0-.439.9,4.894,4.894,0,0,0-.136,1.213v3.153h-1.166v-7.088Z" transform="translate(63.49 20.32)" fill="#fff"/>
    <path id="Path_30" data-name="Path 30" d="M317.7,158.819a3.291,3.291,0,0,1,.659-1.179,3.077,3.077,0,0,1,1.082-.789,3.97,3.97,0,0,1,2.968,0,3.1,3.1,0,0,1,1.076.789,3.3,3.3,0,0,1,.659,1.179,4.747,4.747,0,0,1,.219,1.46,4.686,4.686,0,0,1-.219,1.453,3.318,3.318,0,0,1-.659,1.172,3.041,3.041,0,0,1-1.076.782,4.076,4.076,0,0,1-2.968,0,3.023,3.023,0,0,1-1.082-.782,3.307,3.307,0,0,1-.659-1.172,4.663,4.663,0,0,1-.219-1.453,4.723,4.723,0,0,1,.219-1.46m1.186,2.6a2.385,2.385,0,0,0,.473.836,2.056,2.056,0,0,0,.706.514,2.148,2.148,0,0,0,1.714,0,2.067,2.067,0,0,0,.706-.514,2.4,2.4,0,0,0,.473-.836,3.9,3.9,0,0,0,0-2.289,2.478,2.478,0,0,0-.473-.843,2.022,2.022,0,0,0-.706-.521,2.149,2.149,0,0,0-1.714,0,2.012,2.012,0,0,0-.706.521,2.467,2.467,0,0,0-.473.843,3.9,3.9,0,0,0,0,2.289" transform="translate(62.536 20.32)" fill="#fff"/>
    <path id="Path_31" data-name="Path 31" d="M332.488,163.854V162.73h-.027a2.377,2.377,0,0,1-.946.967,2.833,2.833,0,0,1-1.357.308,3.176,3.176,0,0,1-1.165-.185,1.849,1.849,0,0,1-.754-.527,1.977,1.977,0,0,1-.4-.816,4.355,4.355,0,0,1-.117-1.048v-4.661h1.165v4.8a1.408,1.408,0,0,0,.384,1.042,1.424,1.424,0,0,0,1.056.384,2.377,2.377,0,0,0,.926-.165,1.75,1.75,0,0,0,.652-.466,2.038,2.038,0,0,0,.39-.706,2.883,2.883,0,0,0,.13-.884v-4h1.165v7.087Z" transform="translate(60.554 20.28)" fill="#fff"/>
    <path id="Path_32" data-name="Path 32" d="M342.4,165.817a3.239,3.239,0,0,1-2.495.863,4.8,4.8,0,0,1-1.007-.109,3.081,3.081,0,0,1-.932-.357,2.152,2.152,0,0,1-.693-.644,1.837,1.837,0,0,1-.3-.973h1.166a.854.854,0,0,0,.2.535,1.456,1.456,0,0,0,.452.356,2.212,2.212,0,0,0,.583.2,3.146,3.146,0,0,0,.6.062,2.162,2.162,0,0,0,.973-.2A1.82,1.82,0,0,0,341.6,165a2.26,2.26,0,0,0,.377-.843,4.687,4.687,0,0,0,.117-1.083v-.466h-.027a1.962,1.962,0,0,1-.912.966,2.835,2.835,0,0,1-1.3.309,3.113,3.113,0,0,1-1.385-.289,2.886,2.886,0,0,1-.987-.774,3.3,3.3,0,0,1-.6-1.138,4.671,4.671,0,0,1-.2-1.377,5.353,5.353,0,0,1,.165-1.3,3.516,3.516,0,0,1,.548-1.206,3,3,0,0,1,1.014-.892,3.159,3.159,0,0,1,1.549-.349,2.621,2.621,0,0,1,1.234.294,2.076,2.076,0,0,1,.877.884h.014v-1.014h1.1v6.484a3.736,3.736,0,0,1-.8,2.6m-1.487-3.188a1.913,1.913,0,0,0,.652-.631,2.914,2.914,0,0,0,.363-.884,4.3,4.3,0,0,0,.116-.988,3.953,3.953,0,0,0-.109-.918,2.583,2.583,0,0,0-.35-.816,1.838,1.838,0,0,0-.623-.583,1.867,1.867,0,0,0-.933-.219,2.009,2.009,0,0,0-.96.213,1.866,1.866,0,0,0-.652.569,2.431,2.431,0,0,0-.37.823,4.047,4.047,0,0,0-.116.973,4.9,4.9,0,0,0,.1.96,2.732,2.732,0,0,0,.329.87,1.838,1.838,0,0,0,.617.631,1.783,1.783,0,0,0,.96.24,1.894,1.894,0,0,0,.981-.24" transform="translate(58.817 20.32)" fill="#fff"/>
    <path id="Path_33" data-name="Path 33" d="M348.092,153.419v3.743h.027a1.546,1.546,0,0,1,.384-.556,2.2,2.2,0,0,1,.555-.37,2.9,2.9,0,0,1,.644-.213,3.291,3.291,0,0,1,.652-.068,3.072,3.072,0,0,1,1.165.192,1.924,1.924,0,0,1,.754.535,1.988,1.988,0,0,1,.4.816,4.431,4.431,0,0,1,.116,1.048v4.662h-1.165v-4.8a1.408,1.408,0,0,0-.384-1.041,1.424,1.424,0,0,0-1.056-.384,2.363,2.363,0,0,0-.926.164,1.726,1.726,0,0,0-.651.466,2.017,2.017,0,0,0-.391.706,2.889,2.889,0,0,0-.13.885v4h-1.165v-9.788Z" transform="translate(56.835 20.929)" fill="#fff"/>
    <path id="Path_34" data-name="Path 34" d="M360.051,154.515v-1.1h7.828v1.1h-3.263v8.691h-1.3v-8.691Z" transform="translate(54.295 20.929)" fill="#fff"/>
    <path id="Path_35" data-name="Path 35" d="M370.345,156.727v1.5h.027a3.159,3.159,0,0,1,1.042-1.276,2.619,2.619,0,0,1,1.564-.384V157.8a3.294,3.294,0,0,0-1.194.192,1.883,1.883,0,0,0-.794.562,2.313,2.313,0,0,0-.439.9,4.85,4.85,0,0,0-.137,1.213v3.153h-1.165v-7.088Z" transform="translate(52.514 20.32)" fill="#fff"/>
    <path id="Path_36" data-name="Path 36" d="M381.147,163.788a1.65,1.65,0,0,1-.836.178,1,1,0,0,1-.72-.254,1.1,1.1,0,0,1-.267-.829,2.779,2.779,0,0,1-1.118.829,3.855,3.855,0,0,1-2.289.144,2.127,2.127,0,0,1-.747-.343,1.631,1.631,0,0,1-.5-.61,2.049,2.049,0,0,1-.185-.911,2.08,2.08,0,0,1,.206-.987,1.8,1.8,0,0,1,.541-.624,2.489,2.489,0,0,1,.768-.363c.288-.081.583-.151.885-.206q.479-.1.911-.144a5.007,5.007,0,0,0,.761-.136,1.267,1.267,0,0,0,.52-.261.631.631,0,0,0,.193-.5,1.164,1.164,0,0,0-.144-.617.985.985,0,0,0-.37-.356,1.507,1.507,0,0,0-.507-.165,3.827,3.827,0,0,0-.555-.041,2.46,2.46,0,0,0-1.235.281,1.191,1.191,0,0,0-.534,1.062h-1.165a2.509,2.509,0,0,1,.274-1.11,2.077,2.077,0,0,1,.658-.734,2.781,2.781,0,0,1,.939-.4,4.957,4.957,0,0,1,1.131-.123,6.589,6.589,0,0,1,.953.069,2.513,2.513,0,0,1,.857.281,1.634,1.634,0,0,1,.616.6,1.888,1.888,0,0,1,.233,1v3.638a2.7,2.7,0,0,0,.048.6q.048.191.322.191a1.392,1.392,0,0,0,.357-.055Zm-1.892-3.633a1.452,1.452,0,0,1-.576.239c-.238.05-.486.091-.748.123s-.523.069-.788.11a2.934,2.934,0,0,0-.713.2,1.286,1.286,0,0,0-.515.389,1.079,1.079,0,0,0-.2.688.942.942,0,0,0,.117.485.959.959,0,0,0,.3.321,1.277,1.277,0,0,0,.432.177,2.408,2.408,0,0,0,.52.054,2.772,2.772,0,0,0,.988-.156,2.093,2.093,0,0,0,.672-.4,1.572,1.572,0,0,0,.384-.519,1.315,1.315,0,0,0,.123-.525Z" transform="translate(51.5 20.32)" fill="#fff"/>
    <path id="Path_37" data-name="Path 37" d="M385.186,156.728v1.125h.027a2.453,2.453,0,0,1,2.3-1.289,3.072,3.072,0,0,1,1.165.192,1.923,1.923,0,0,1,.754.535,1.978,1.978,0,0,1,.4.816,4.393,4.393,0,0,1,.117,1.048v4.661h-1.165v-4.8a1.409,1.409,0,0,0-.384-1.042,1.424,1.424,0,0,0-1.056-.384,2.377,2.377,0,0,0-.926.165,1.737,1.737,0,0,0-.652.467,2.027,2.027,0,0,0-.39.706,2.886,2.886,0,0,0-.13.884v4h-1.165v-7.087Z" transform="translate(49.641 20.32)" fill="#fff"/>
    <path id="Path_38" data-name="Path 38" d="M394.323,162.231a1.23,1.23,0,0,0,.431.425,1.934,1.934,0,0,0,.6.227,3.5,3.5,0,0,0,.693.069,4.256,4.256,0,0,0,.575-.041,2.109,2.109,0,0,0,.556-.151,1.028,1.028,0,0,0,.418-.323.859.859,0,0,0,.165-.541.779.779,0,0,0-.343-.686,2.93,2.93,0,0,0-.857-.376c-.343-.1-.715-.183-1.117-.261a5.721,5.721,0,0,1-1.118-.329,2.325,2.325,0,0,1-.857-.6,1.55,1.55,0,0,1-.342-1.069,1.7,1.7,0,0,1,.24-.918,1.963,1.963,0,0,1,.617-.623,2.837,2.837,0,0,1,.85-.357,3.968,3.968,0,0,1,.939-.116,5.6,5.6,0,0,1,1.11.1,2.579,2.579,0,0,1,.9.356,1.837,1.837,0,0,1,.623.686,2.58,2.58,0,0,1,.274,1.076h-1.164a1.122,1.122,0,0,0-.562-.932,1.768,1.768,0,0,0-.514-.2,2.644,2.644,0,0,0-.569-.061,3.448,3.448,0,0,0-.527.041,1.769,1.769,0,0,0-.487.144.977.977,0,0,0-.356.273.691.691,0,0,0-.137.446.657.657,0,0,0,.212.5,1.693,1.693,0,0,0,.541.329,4.687,4.687,0,0,0,.74.219q.411.09.823.185c.292.065.578.142.856.234a2.754,2.754,0,0,1,.74.364,1.767,1.767,0,0,1,.521.569,1.673,1.673,0,0,1,.2.849,1.967,1.967,0,0,1-.268,1.07,2.1,2.1,0,0,1-.7.685,2.928,2.928,0,0,1-.973.363,5.77,5.77,0,0,1-1.077.1,4.977,4.977,0,0,1-1.124-.123,2.758,2.758,0,0,1-.947-.4,2.049,2.049,0,0,1-.657-.74,2.554,2.554,0,0,1-.274-1.118h1.164a1.307,1.307,0,0,0,.179.652" transform="translate(47.92 20.32)" fill="#fff"/>
    <path id="Path_39" data-name="Path 39" d="M403.257,156.728v.96h.027a1.742,1.742,0,0,1,.9-.856,3.361,3.361,0,0,1,1.357-.268,3.2,3.2,0,0,1,1.432.3,2.913,2.913,0,0,1,1.014.816,3.586,3.586,0,0,1,.611,1.185,4.873,4.873,0,0,1,.2,1.426,5.006,5.006,0,0,1-.2,1.426,3.373,3.373,0,0,1-.6,1.172,2.84,2.84,0,0,1-1.014.789,3.288,3.288,0,0,1-1.418.287,3.526,3.526,0,0,1-.583-.054,3.247,3.247,0,0,1-.637-.178,2.474,2.474,0,0,1-.6-.336,1.847,1.847,0,0,1-.473-.527h-.027v3.647h-1.166v-9.788Zm4.188,2.515a2.578,2.578,0,0,0-.4-.843,1.935,1.935,0,0,0-.685-.589,2.084,2.084,0,0,0-.981-.219,1.924,1.924,0,0,0-1.673.843,2.56,2.56,0,0,0-.377.857,4.173,4.173,0,0,0,.006,1.981,2.5,2.5,0,0,0,.392.856,1.973,1.973,0,0,0,.692.6,2.148,2.148,0,0,0,1.027.227,1.992,1.992,0,0,0,1.008-.233,1.882,1.882,0,0,0,.652-.617,2.668,2.668,0,0,0,.356-.877,4.644,4.644,0,0,0,.11-1.014,3.654,3.654,0,0,0-.131-.967" transform="translate(46.156 20.32)" fill="#fff"/>
    <path id="Path_40" data-name="Path 40" d="M418.309,163.788a1.65,1.65,0,0,1-.836.178,1,1,0,0,1-.72-.254,1.1,1.1,0,0,1-.267-.829,2.779,2.779,0,0,1-1.118.829,3.855,3.855,0,0,1-2.289.144,2.127,2.127,0,0,1-.747-.343,1.631,1.631,0,0,1-.5-.61,2.049,2.049,0,0,1-.185-.911,2.08,2.08,0,0,1,.206-.987,1.8,1.8,0,0,1,.541-.624,2.49,2.49,0,0,1,.768-.363c.288-.081.583-.151.885-.206q.479-.1.911-.144a5.009,5.009,0,0,0,.761-.136,1.267,1.267,0,0,0,.52-.261.631.631,0,0,0,.193-.5,1.165,1.165,0,0,0-.144-.617.985.985,0,0,0-.37-.356,1.507,1.507,0,0,0-.507-.165,3.827,3.827,0,0,0-.555-.041,2.46,2.46,0,0,0-1.235.281,1.191,1.191,0,0,0-.534,1.062H411.92a2.511,2.511,0,0,1,.274-1.11,2.078,2.078,0,0,1,.658-.734,2.782,2.782,0,0,1,.939-.4,4.958,4.958,0,0,1,1.131-.123,6.589,6.589,0,0,1,.953.069,2.513,2.513,0,0,1,.857.281,1.634,1.634,0,0,1,.616.6,1.889,1.889,0,0,1,.233,1v3.638a2.7,2.7,0,0,0,.048.6q.048.191.322.191a1.393,1.393,0,0,0,.357-.055Zm-1.892-3.633a1.452,1.452,0,0,1-.576.239c-.238.05-.486.091-.748.123s-.523.069-.788.11a2.936,2.936,0,0,0-.713.2,1.286,1.286,0,0,0-.514.389,1.079,1.079,0,0,0-.2.688.941.941,0,0,0,.117.485.958.958,0,0,0,.3.321,1.278,1.278,0,0,0,.432.177,2.409,2.409,0,0,0,.52.054,2.773,2.773,0,0,0,.988-.156,2.094,2.094,0,0,0,.672-.4,1.571,1.571,0,0,0,.384-.519,1.314,1.314,0,0,0,.123-.525Z" transform="translate(44.306 20.32)" fill="#fff"/>
    <path id="Path_41" data-name="Path 41" d="M422.3,156.727v1.5h.027a3.159,3.159,0,0,1,1.042-1.276,2.619,2.619,0,0,1,1.564-.384V157.8a3.294,3.294,0,0,0-1.193.192,1.883,1.883,0,0,0-.794.562,2.312,2.312,0,0,0-.439.9,4.85,4.85,0,0,0-.137,1.213v3.153H421.2v-7.088Z" transform="translate(42.456 20.32)" fill="#fff"/>
    <path id="Path_42" data-name="Path 42" d="M431.531,163.363a3.222,3.222,0,0,1-2,.6,3.645,3.645,0,0,1-1.473-.274,2.9,2.9,0,0,1-1.049-.768,3.268,3.268,0,0,1-.638-1.179,5.683,5.683,0,0,1-.24-1.494,4.266,4.266,0,0,1,.247-1.481,3.546,3.546,0,0,1,.692-1.165,3.148,3.148,0,0,1,1.056-.768,3.217,3.217,0,0,1,1.336-.274,2.917,2.917,0,0,1,1.57.39,3.127,3.127,0,0,1,1,.994,3.94,3.94,0,0,1,.52,1.317,5.662,5.662,0,0,1,.117,1.356h-5.305a2.823,2.823,0,0,0,.11.885,1.991,1.991,0,0,0,.4.74,1.953,1.953,0,0,0,.7.514,2.408,2.408,0,0,0,1,.192,2.022,2.022,0,0,0,1.214-.343,1.657,1.657,0,0,0,.623-1.042h1.152a2.834,2.834,0,0,1-1.028,1.8m-.281-4.552a2.018,2.018,0,0,0-.425-.637,2,2,0,0,0-1.433-.583,2.028,2.028,0,0,0-.815.158,1.869,1.869,0,0,0-.624.431,2.046,2.046,0,0,0-.411.638,2.423,2.423,0,0,0-.178.774h4.072a2.4,2.4,0,0,0-.185-.781" transform="translate(41.502 20.32)" fill="#fff"/>
    <path id="Path_43" data-name="Path 43" d="M436.832,156.728v1.125h.027a2.453,2.453,0,0,1,2.3-1.289,3.073,3.073,0,0,1,1.165.192,1.923,1.923,0,0,1,.754.535,1.978,1.978,0,0,1,.4.816,4.4,4.4,0,0,1,.117,1.048v4.661h-1.165v-4.8a1.408,1.408,0,0,0-.384-1.042,1.424,1.424,0,0,0-1.056-.384,2.377,2.377,0,0,0-.926.165,1.737,1.737,0,0,0-.652.467,2.028,2.028,0,0,0-.39.706,2.888,2.888,0,0,0-.13.884v4h-1.165v-7.087Z" transform="translate(39.642 20.32)" fill="#fff"/>
    <path id="Path_44" data-name="Path 44" d="M449.331,157.961a1.764,1.764,0,0,0-1.179-.37,2.179,2.179,0,0,0-1.056.233,1.875,1.875,0,0,0-.678.617,2.559,2.559,0,0,0-.363.884,4.812,4.812,0,0,0-.11,1.035,4,4,0,0,0,.116.96,2.574,2.574,0,0,0,.364.829,1.846,1.846,0,0,0,.644.583,2.209,2.209,0,0,0,2.3-.233,2.045,2.045,0,0,0,.6-1.275h1.193a3.262,3.262,0,0,1-.98,2.029,3.081,3.081,0,0,1-2.146.712,3.7,3.7,0,0,1-1.433-.26,2.787,2.787,0,0,1-1.042-.74,3.194,3.194,0,0,1-.63-1.145,4.743,4.743,0,0,1-.213-1.46,5.2,5.2,0,0,1,.206-1.488,3.44,3.44,0,0,1,.624-1.206,2.923,2.923,0,0,1,1.049-.81,3.433,3.433,0,0,1,1.466-.294,4.273,4.273,0,0,1,1.131.144,2.755,2.755,0,0,1,.933.446,2.432,2.432,0,0,1,.664.76,2.8,2.8,0,0,1,.329,1.09h-1.206a1.776,1.776,0,0,0-.576-1.042" transform="translate(37.905 20.32)" fill="#fff"/>
    <path id="Path_45" data-name="Path 45" d="M456.915,164.8a7.457,7.457,0,0,1-.4.877,2.4,2.4,0,0,1-.439.583,1.484,1.484,0,0,1-.535.329,2.05,2.05,0,0,1-.678.1,3.228,3.228,0,0,1-.412-.027,2,2,0,0,1-.4-.1V165.5a1.931,1.931,0,0,0,.35.117,1.5,1.5,0,0,0,.335.048,1,1,0,0,0,.6-.172,1.046,1.046,0,0,0,.364-.486l.48-1.193-2.81-7.046h1.316l2.07,5.8h.027l1.988-5.8H460Z" transform="translate(36.229 20.28)" fill="#fff"/>
    <rect id="Rectangle_7" data-name="Rectangle 7" width="1.531" height="133.665" transform="translate(278.4 50.631)" fill="#fff"/>
    <rect id="Rectangle_8" data-name="Rectangle 8" width="375.364" height="136.37" transform="translate(124 50.63)" fill="none"/>
  </g>
</svg>
